<svg width="36" height="36" viewBox="0 0 36 36" fill="none" xmlns="http://www.w3.org/2000/svg">
<path d="M7.5 6V15.0375V15V30V6ZM10.5 21H15.75C15.975 20.425 16.25 19.8875 16.575 19.3875C16.9 18.8875 17.275 18.425 17.7 18H10.5V21ZM10.5 27H15.2625C15.1375 26.5 15.0563 26 15.0188 25.5C14.9813 25 14.9875 24.5 15.0375 24H10.5V27ZM7.5 33C6.675 33 5.96875 32.7063 5.38125 32.1188C4.79375 31.5313 4.5 30.825 4.5 30V6C4.5 5.175 4.79375 4.46875 5.38125 3.88125C5.96875 3.29375 6.675 3 7.5 3H19.5L28.5 12V15.75C28.025 15.55 27.5375 15.3938 27.0375 15.2813C26.5375 15.1688 26.025 15.0875 25.5 15.0375V13.5H18V6H7.5V30H16.5375C16.9375 30.6 17.3875 31.1563 17.8875 31.6688C18.3875 32.1813 18.9375 32.625 19.5375 33H7.5ZM24.75 28.5C25.8 28.5 26.6875 28.1375 27.4125 27.4125C28.1375 26.6875 28.5 25.8 28.5 24.75C28.5 23.7 28.1375 22.8125 27.4125 22.0875C26.6875 21.3625 25.8 21 24.75 21C23.7 21 22.8125 21.3625 22.0875 22.0875C21.3625 22.8125 21 23.7 21 24.75C21 25.8 21.3625 26.6875 22.0875 27.4125C22.8125 28.1375 23.7 28.5 24.75 28.5ZM32.4 34.5L28.35 30.45C27.825 30.8 27.2563 31.0625 26.6438 31.2375C26.0312 31.4125 25.4 31.5 24.75 31.5C22.875 31.5 21.2812 30.8438 19.9688 29.5313C18.6563 28.2188 18 26.625 18 24.75C18 22.875 18.6563 21.2812 19.9688 19.9688C21.2812 18.6563 22.875 18 24.75 18C26.625 18 28.2188 18.6563 29.5313 19.9688C30.8438 21.2812 31.5 22.875 31.5 24.75C31.5 25.4 31.4125 26.0312 31.2375 26.6438C31.0625 27.2563 30.8 27.825 30.45 28.35L34.5 32.4L32.4 34.5Z" fill="#599CC2"/>
</svg>
