<svg width="36" height="36" viewBox="0 0 36 36" fill="none" xmlns="http://www.w3.org/2000/svg">
<path d="M15 18C13.35 18 11.9375 17.4125 10.7625 16.2375C9.5875 15.0625 9 13.65 9 12C9 10.35 9.5875 8.9375 10.7625 7.7625C11.9375 6.5875 13.35 6 15 6C16.65 6 18.0625 6.5875 19.2375 7.7625C20.4125 8.9375 21 10.35 21 12C21 13.65 20.4125 15.0625 19.2375 16.2375C18.0625 17.4125 16.65 18 15 18ZM3 30V25.8C3 24.975 3.2125 24.2 3.6375 23.475C4.0625 22.75 4.65 22.2 5.4 21.825C6.675 21.175 8.1125 20.625 9.7125 20.175C11.3125 19.725 13.075 19.5 15 19.5H15.525C15.675 19.5 15.825 19.525 15.975 19.575C15.775 20.025 15.6063 20.4938 15.4688 20.9813C15.3313 21.4688 15.225 21.975 15.15 22.5H15C13.225 22.5 11.6313 22.725 10.2188 23.175C8.80625 23.625 7.65 24.075 6.75 24.525C6.525 24.65 6.34375 24.825 6.20625 25.05C6.06875 25.275 6 25.525 6 25.8V27H15.45C15.6 27.525 15.8 28.0438 16.05 28.5563C16.3 29.0688 16.575 29.55 16.875 30H3ZM24 31.5L23.55 29.25C23.25 29.125 22.9688 28.9938 22.7063 28.8563C22.4438 28.7188 22.175 28.55 21.9 28.35L19.725 29.025L18.225 26.475L19.95 24.975C19.9 24.625 19.875 24.3 19.875 24C19.875 23.7 19.9 23.375 19.95 23.025L18.225 21.525L19.725 18.975L21.9 19.65C22.175 19.45 22.4438 19.2813 22.7063 19.1438C22.9688 19.0063 23.25 18.875 23.55 18.75L24 16.5H27L27.45 18.75C27.75 18.875 28.0313 19.0125 28.2938 19.1625C28.5563 19.3125 28.825 19.5 29.1 19.725L31.275 18.975L32.775 21.6L31.05 23.1C31.1 23.4 31.125 23.7125 31.125 24.0375C31.125 24.3625 31.1 24.675 31.05 24.975L32.775 26.475L31.275 29.025L29.1 28.35C28.825 28.55 28.5563 28.7188 28.2938 28.8563C28.0313 28.9938 27.75 29.125 27.45 29.25L27 31.5H24ZM25.5 27C26.325 27 27.0312 26.7063 27.6188 26.1188C28.2063 25.5312 28.5 24.825 28.5 24C28.5 23.175 28.2063 22.4688 27.6188 21.8813C27.0312 21.2938 26.325 21 25.5 21C24.675 21 23.9688 21.2938 23.3813 21.8813C22.7938 22.4688 22.5 23.175 22.5 24C22.5 24.825 22.7938 25.5312 23.3813 26.1188C23.9688 26.7063 24.675 27 25.5 27ZM15 15C15.825 15 16.5313 14.7063 17.1188 14.1188C17.7063 13.5313 18 12.825 18 12C18 11.175 17.7063 10.4688 17.1188 9.88125C16.5313 9.29375 15.825 9 15 9C14.175 9 13.4688 9.29375 12.8813 9.88125C12.2938 10.4688 12 11.175 12 12C12 12.825 12.2938 13.5313 12.8813 14.1188C13.4688 14.7063 14.175 15 15 15Z" fill="#599CC2"/>
</svg>
